<?xml version="1.0" encoding="UTF-8"?><svg id="uuid-ac552e7e-24b3-4065-b36a-afb20941f0f0" xmlns="http://www.w3.org/2000/svg" viewBox="0 0 25.3652 12.3281"><path d="M22.248,3.4512h-13.0182c-.459-.4822-.9136-.931-1.3636-1.3418-.4707-.4297-.9463-.8008-1.4268-1.1133s-.9717-.5566-1.4736-.7324-1.0244-.2637-1.5674-.2637c-.4141,0-.7715.0508-1.0723.1523s-.5479.2422-.7412.4219-.3369.3926-.4307.6387-.1406.5117-.1406.7969c0,.4453.1074.9258.3223,1.4414H0v.8613h1.3359v7.875h.9609v-7.875h7.6113v1.459c-.1094-.0391-.2236-.0693-.3428-.0908s-.2393-.0322-.3604-.0322c-.1367,0-.2734.0166-.4102.0498s-.2666.085-.3896.1553-.2363.1621-.3398.2754-.1924.252-.2666.416l-.0293.0059c-.0586-.0977-.127-.2021-.2051-.3135s-.1768-.2148-.2959-.3105-.2607-.1758-.4248-.2402-.3594-.0967-.5859-.0967c-.3008,0-.5742.0596-.8203.1787s-.4561.2832-.6299.4922-.3076.4551-.4014.7383-.1406.5889-.1406.917c0,.4258.0625.8223.1875,1.1895s.2881.7031.4893,1.0078.4268.5801.6768.8262.499.4609.7471.6445.4824.3379.7031.4629.4014.2188.542.2812l.4746-.8086c-.3789-.1836-.7393-.3857-1.0811-.6064s-.6426-.4717-.9023-.7529-.4658-.5986-.6182-.9521-.2285-.7529-.2285-1.1982c0-.207.0205-.3994.0615-.5771s.1045-.333.1904-.4658.1943-.2363.3252-.3105.2881-.1113.4717-.1113c.1914,0,.3477.0459.4688.1377s.2197.2158.2959.3721.1348.3379.1758.5449.0771.4238.1084.6504h.8965c-.0078-.0664-.0146-.1338-.0205-.2021s-.0088-.1357-.0088-.2021c0-.168.0234-.3281.0703-.4805s.1162-.2852.208-.3984.2061-.2041.3428-.2725.2969-.1025.4805-.1025.3789.0371.5859.1113v5.4902h.9609v-7.8809h3.2344v.0059c.0977.1484.1904.3115.2783.4893s.165.3604.2314.5479.1191.377.1582.5684.0586.375.0586.5508c0,.1523-.0166.3047-.0498.457s-.082.2881-.1465.4072-.1465.2158-.2461.29-.2158.1113-.3486.1113c-.1602,0-.3057-.0596-.4365-.1787s-.2705-.3193-.4189-.6006l-.7793.4453c.3984.7852.7861,1.4824,1.1631,2.0918s.7734,1.1211,1.1895,1.5352.8682.7285,1.3564.9434,1.043.3223,1.6641.3223c.332,0,.6289-.0234.8906-.0703s.4824-.1035.6621-.1699v-1.0547c-.2109.0859-.4492.1631-.7148.2314s-.5645.1025-.8965.1025c-.293,0-.5928-.0391-.8994-.1172s-.6123-.2168-.917-.416-.6045-.4697-.8994-.8115-.5771-.7764-.8467-1.3037v-.0293c.2812-.0234.5234-.1016.7266-.2344s.3701-.2988.501-.498.2275-.4219.29-.668.0938-.4941.0938-.7441c0-.3672-.0566-.7314-.1699-1.0928s-.2695-.7314-.4688-1.1104h4.9277v1.8633l-.0234.0059c-.1172-.1094-.2402-.2119-.3691-.3076s-.2637-.1787-.4043-.249-.2871-.125-.4395-.1641-.3125-.0586-.4805-.0586c-.293,0-.5615.0605-.8057.1816s-.4551.2842-.6328.4893-.3164.4404-.416.7061-.1494.541-.1494.8262c0,.3008.0547.5918.1641.873s.2617.5312.457.75.4277.3945.6973.5273.5645.1992.8848.1992c.2578,0,.5176-.0508.7793-.1523s.5-.2578.7148-.4688l.0234.0059v2.8477h.9609v-7.875h2.1562v7.875h.9609v-7.875h1.2305v-.8613h-3.1172ZM3.1172,3.4512h-.8906c-.1914-.4883-.2871-.9082-.2871-1.2598,0-.1797.0254-.3486.0762-.5068s.1357-.2959.2549-.4131.2754-.209.4688-.2754.4326-.0996.7178-.0996c.3516,0,.7002.0498,1.0459.1494s.6787.2295.999.3896.625.3389.9141.5361.5527.3926.791.5859.4482.375.6299.5449c.1533.1434.2666.2511.3684.3486H3.1172ZM20.0625,7.4414c0,.3047-.0518.5605-.1553.7676s-.2324.373-.3867.498-.3203.2148-.498.2695-.3389.082-.4834.082c-.1875,0-.3594-.0381-.5156-.1143s-.29-.1787-.4014-.3076-.1982-.2783-.2607-.4482-.0938-.3486-.0938-.5361c0-.1797.0293-.3525.0879-.5186s.1426-.3115.252-.4365.2393-.2256.3896-.3018.3193-.1143.5068-.1143c.1836,0,.3545.0342.5127.1025s.3027.1533.4336.2549.248.21.3516.3252.1904.2178.2607.3076v.1699Z"/></svg>